<svg xmlns="http://www.w3.org/2000/svg" width="81.918" height="113.388" viewBox="0 0 81.918 113.388">
  <g id="_128x128_Dark_Logo" data-name="128x128_Dark_Logo" transform="translate(-7294.664 678.564)">
    <g id="g120" transform="translate(7325.351 -612.062)">
      <path id="path122" d="M-3.954,0A11.5,11.5,0,0,1-8.541.948H-36.289a9.2,9.2,0,0,0-9.2,9.2V11.7a9.2,9.2,0,0,0,9.2,9.2H2.994" transform="translate(45.485)" fill="none" stroke="#1e2323" stroke-linecap="round" stroke-linejoin="round" stroke-miterlimit="10" stroke-width="4"/>
    </g>
    <g id="g124" transform="translate(7325.351 -652.578)">
      <path id="path126" d="M-4.616,0H-43.9a9.2,9.2,0,0,0-9.2,9.2,9.2,9.2,0,0,0,9.2,9.2h27.747A11.535,11.535,0,0,1-4.616,29.929a11.538,11.538,0,0,1-6.948,10.587" transform="translate(53.095)" fill="none" stroke="#ff0063" stroke-linecap="round" stroke-linejoin="round" stroke-miterlimit="10" stroke-width="4"/>
    </g>
    <g id="g128" transform="translate(7296.665 -632.32)">
      <path id="path130" d="M-4.833-6.2h-28.63A22.157,22.157,0,0,1-55.595-28.335V-71.346" transform="translate(55.595 71.346)" fill="none" stroke="#1e2323" stroke-linecap="round" stroke-linejoin="round" stroke-miterlimit="10" stroke-width="4"/>
    </g>
    <g id="g132" transform="translate(7308.146 -596.893)">
      <path id="path134" d="M0,0V7.585A10.664,10.664,0,0,0,10.651,18.236H60.7a5.741,5.741,0,0,1,0,11.481H56.28" fill="none" stroke="#1e2323" stroke-linecap="round" stroke-linejoin="round" stroke-miterlimit="10" stroke-width="4"/>
    </g>
    <g id="g136" transform="translate(7308.146 -665.082)">
      <path id="path138" d="M-1.638,0H-8.191A10.663,10.663,0,0,0-18.843,10.651V54.874" transform="translate(18.843)" fill="none" stroke="#ff0063" stroke-linecap="round" stroke-linejoin="round" stroke-miterlimit="10" stroke-width="4"/>
    </g>
    <g id="g140" transform="translate(7296.665 -676.564)">
      <path id="path142" d="M0-2.787V-9.931A22.157,22.157,0,0,1,22.133-32.064H72.177a5.739,5.739,0,0,1,5.74,5.74,5.74,5.74,0,0,1-5.74,5.741H44.7" transform="translate(0 32.064)" fill="none" stroke="#ff0063" stroke-linecap="round" stroke-linejoin="round" stroke-miterlimit="10" stroke-width="4"/>
    </g>
    <g id="g144" transform="translate(7308.146 -622.649)">
      <path id="path146" d="M-3.163,0H-36.381" transform="translate(36.381)" fill="none" stroke="#ff0063" stroke-linecap="round" stroke-linejoin="round" stroke-miterlimit="10" stroke-width="4"/>
    </g>
  </g>
</svg>
