<svg xmlns="http://www.w3.org/2000/svg" width="159.846" height="221.578" viewBox="0 0 159.846 221.578">
  <g id="_256x256_Dark_Logo" data-name="256x256_Dark_Logo" transform="translate(-7293.164 680.063)">
    <g id="g120" transform="translate(7352.936 -550.036)">
      <path id="path122" d="M35.983,0a22.548,22.548,0,0,1-9,1.86h-54.43A18.041,18.041,0,0,0-45.485,19.9v3.059A18.041,18.041,0,0,0-27.445,41H49.612" transform="translate(45.485)" fill="none" stroke="#1e2323" stroke-linecap="round" stroke-linejoin="round" stroke-miterlimit="10" stroke-width="7"/>
    </g>
    <g id="g124" transform="translate(7352.936 -629.513)">
      <path id="path126" d="M42,0H-35.055a18.041,18.041,0,0,0-18.04,18.04,18.042,18.042,0,0,0,18.04,18.042h54.43a22.631,22.631,0,0,1,9,43.395" transform="translate(53.095)" fill="none" stroke="#ff0063" stroke-linecap="round" stroke-linejoin="round" stroke-miterlimit="10" stroke-width="7"/>
    </g>
    <g id="g128" transform="translate(7296.666 -589.775)">
      <path id="path130" d="M43.981,56.442H-12.181A43.463,43.463,0,0,1-55.595,13.026V-71.346" transform="translate(55.595 71.346)" fill="none" stroke="#1e2323" stroke-linecap="round" stroke-linejoin="round" stroke-miterlimit="10" stroke-width="7"/>
    </g>
    <g id="g132" transform="translate(7319.186 -520.28)">
      <path id="path134" d="M0,0V14.878A20.918,20.918,0,0,0,20.894,35.772h98.169a11.261,11.261,0,0,1,0,22.522H110.4" fill="none" stroke="#1e2323" stroke-linecap="round" stroke-linejoin="round" stroke-miterlimit="10" stroke-width="7"/>
    </g>
    <g id="g136" transform="translate(7319.187 -654.04)">
      <path id="path138" d="M14.906,0H2.051A20.917,20.917,0,0,0-18.843,20.894v86.749" transform="translate(18.843)" fill="none" stroke="#ff0063" stroke-linecap="round" stroke-linejoin="round" stroke-miterlimit="10" stroke-width="7"/>
    </g>
    <g id="g140" transform="translate(7296.665 -676.564)">
      <path id="path142" d="M0,25.366V11.352A43.464,43.464,0,0,1,43.416-32.064h98.169a11.259,11.259,0,0,1,11.26,11.26,11.261,11.261,0,0,1-11.26,11.262h-53.9" transform="translate(0 32.064)" fill="none" stroke="#ff0063" stroke-linecap="round" stroke-linejoin="round" stroke-miterlimit="10" stroke-width="7"/>
    </g>
    <g id="g144" transform="translate(7319.187 -570.803)">
      <path id="path146" d="M28.781,0H-36.381" transform="translate(36.381)" fill="none" stroke="#ff0063" stroke-linecap="round" stroke-linejoin="round" stroke-miterlimit="10" stroke-width="7"/>
    </g>
  </g>
</svg>
