<svg xmlns="http://www.w3.org/2000/svg" width="343.539" height="478.254" viewBox="0 0 343.539 478.254">
  <g id="_512x512_Dark_Logo" data-name="512x512_Dark_Logo" transform="translate(-7291.664 681.563)">
    <g id="g120" transform="translate(7419.46 -400.453)">
      <path id="path122" d="M132.3,0A49.2,49.2,0,0,1,112.66,4.06H-6.118A39.37,39.37,0,0,0-45.485,43.427V50.1A39.37,39.37,0,0,0-6.118,89.469H162.038" transform="translate(45.485)" fill="none" stroke="#1e2323" stroke-linecap="round" stroke-linejoin="round" stroke-miterlimit="10" stroke-width="10"/>
    </g>
    <g id="g124" transform="translate(7419.46 -573.89)">
      <path id="path126" d="M154.428,0H-13.728A39.37,39.37,0,0,0-53.095,39.367,39.371,39.371,0,0,0-13.728,78.739H105.05a49.386,49.386,0,0,1,19.637,94.7" transform="translate(53.095)" fill="none" stroke="#ff0063" stroke-linecap="round" stroke-linejoin="round" stroke-miterlimit="10" stroke-width="10"/>
    </g>
    <g id="g128" transform="translate(7296.667 -487.172)">
      <path id="path130" d="M161.7,207.515H39.143a94.846,94.846,0,0,1-94.738-94.743V-71.346" transform="translate(55.595 71.346)" fill="none" stroke="#1e2323" stroke-linecap="round" stroke-linejoin="round" stroke-miterlimit="10" stroke-width="10"/>
    </g>
    <g id="g132" transform="translate(7345.811 -335.519)">
      <path id="path134" d="M0,0V32.467A45.648,45.648,0,0,0,45.594,78.061H259.819a24.574,24.574,0,0,1,0,49.149h-18.9" fill="none" stroke="#1e2323" stroke-linecap="round" stroke-linejoin="round" stroke-miterlimit="10" stroke-width="10"/>
    </g>
    <g id="g136" transform="translate(7345.812 -627.413)">
      <path id="path138" d="M54.8,0H26.752A45.644,45.644,0,0,0-18.843,45.594V234.9" transform="translate(18.843)" fill="none" stroke="#ff0063" stroke-linecap="round" stroke-linejoin="round" stroke-miterlimit="10" stroke-width="10"/>
    </g>
    <g id="g140" transform="translate(7296.665 -676.564)">
      <path id="path142" d="M0,93.26V62.679A94.847,94.847,0,0,1,94.743-32.064H308.968A24.569,24.569,0,0,1,333.54-7.492a24.573,24.573,0,0,1-24.572,24.577H191.347" transform="translate(0 32.064)" fill="none" stroke="#ff0063" stroke-linecap="round" stroke-linejoin="round" stroke-miterlimit="10" stroke-width="10"/>
    </g>
    <g id="g144" transform="translate(7345.814 -445.773)">
      <path id="path146" d="M105.817,0h-142.2" transform="translate(36.381)" fill="none" stroke="#ff0063" stroke-linecap="round" stroke-linejoin="round" stroke-miterlimit="10" stroke-width="10"/>
    </g>
  </g>
</svg>
