<svg xmlns="http://www.w3.org/2000/svg" width="9.395" height="12.986" viewBox="0 0 9.395 12.986">
  <g id="_16x16_Light_Logo" data-name="16x16_Light_Logo" transform="translate(-7296.414 676.814)">
    <g id="g120" transform="translate(7299.938 -669.201)">
      <path id="path122" d="M-40.745,0a1.312,1.312,0,0,1-.524.108h-3.167a1.05,1.05,0,0,0-1.05,1.05v.178a1.05,1.05,0,0,0,1.05,1.05h4.484" transform="translate(45.485)" fill="none" stroke="#e7f6f2" stroke-linecap="round" stroke-linejoin="round" stroke-miterlimit="10" stroke-width="0.5"/>
    </g>
    <g id="g124" transform="translate(7299.938 -673.826)">
      <path id="path126" d="M-47.561,0h-4.484a1.05,1.05,0,0,0-1.05,1.05,1.05,1.05,0,0,0,1.05,1.05h3.167a1.317,1.317,0,0,1,1.317,1.317,1.317,1.317,0,0,1-.793,1.208" transform="translate(53.095)" fill="none" stroke="#ff0063" stroke-linecap="round" stroke-linejoin="round" stroke-miterlimit="10" stroke-width="0.5"/>
    </g>
    <g id="g128" transform="translate(7296.665 -671.513)">
      <path id="path130" d="M-49.8-63.91h-3.268a2.529,2.529,0,0,1-2.526-2.526v-4.91" transform="translate(55.595 71.346)" fill="none" stroke="#e7f6f2" stroke-linecap="round" stroke-linejoin="round" stroke-miterlimit="10" stroke-width="0.5"/>
    </g>
    <g id="g132" transform="translate(7297.975 -667.469)">
      <path id="path134" d="M0,0V.866A1.217,1.217,0,0,0,1.216,2.082H6.928a.655.655,0,0,1,0,1.311h-.5" fill="none" stroke="#e7f6f2" stroke-linecap="round" stroke-linejoin="round" stroke-miterlimit="10" stroke-width="0.5"/>
    </g>
    <g id="g136" transform="translate(7297.975 -675.253)">
      <path id="path138" d="M-16.879,0h-.748a1.217,1.217,0,0,0-1.216,1.216V6.264" transform="translate(18.843)" fill="none" stroke="#ff0063" stroke-linecap="round" stroke-linejoin="round" stroke-miterlimit="10" stroke-width="0.5"/>
    </g>
    <g id="g140" transform="translate(7296.665 -676.564)">
      <path id="path142" d="M0-28.722v-.815a2.529,2.529,0,0,1,2.526-2.526H8.239a.655.655,0,0,1,.655.655.655.655,0,0,1-.655.655H5.1" transform="translate(0 32.064)" fill="none" stroke="#ff0063" stroke-linecap="round" stroke-linejoin="round" stroke-miterlimit="10" stroke-width="0.5"/>
    </g>
    <g id="g144" transform="translate(7297.975 -670.409)">
      <path id="path146" d="M-32.589,0h-3.792" transform="translate(36.381)" fill="none" stroke="#ff0063" stroke-linecap="round" stroke-linejoin="round" stroke-miterlimit="10" stroke-width="0.5"/>
    </g>
  </g>
</svg>
