<svg xmlns="http://www.w3.org/2000/svg" width="14.914" height="20.634" viewBox="0 0 14.914 20.634">
  <g id="_24x24_Light_Logo" data-name="24x24_Light_Logo" transform="translate(-7296.289 676.939)">
    <g id="g120" transform="translate(7301.878 -664.839)">
      <path id="path122" d="M-37.936,0a2.089,2.089,0,0,1-.834.172h-5.044a1.672,1.672,0,0,0-1.672,1.672v.283A1.672,1.672,0,0,0-43.814,3.8h7.14" transform="translate(45.485)" fill="none" stroke="#e7f6f2" stroke-linecap="round" stroke-linejoin="round" stroke-miterlimit="10" stroke-width="0.75"/>
    </g>
    <g id="g124" transform="translate(7301.878 -672.204)">
      <path id="path126" d="M-44.282,0h-7.14a1.672,1.672,0,0,0-1.672,1.672,1.672,1.672,0,0,0,1.672,1.672h5.044a2.1,2.1,0,0,1,2.1,2.1,2.1,2.1,0,0,1-1.263,1.924" transform="translate(53.095)" fill="none" stroke="#ff0063" stroke-linecap="round" stroke-linejoin="round" stroke-miterlimit="10" stroke-width="0.75"/>
    </g>
    <g id="g128" transform="translate(7296.665 -668.521)">
      <path id="path130" d="M-46.367-59.505h-5.2a4.027,4.027,0,0,1-4.023-4.023v-7.818" transform="translate(55.595 71.346)" fill="none" stroke="#e7f6f2" stroke-linecap="round" stroke-linejoin="round" stroke-miterlimit="10" stroke-width="0.75"/>
    </g>
    <g id="g132" transform="translate(7298.751 -662.082)">
      <path id="path134" d="M0,0V1.379A1.938,1.938,0,0,0,1.936,3.315h9.1a1.044,1.044,0,0,1,0,2.087h-.8" fill="none" stroke="#e7f6f2" stroke-linecap="round" stroke-linejoin="round" stroke-miterlimit="10" stroke-width="0.75"/>
    </g>
    <g id="g136" transform="translate(7298.751 -674.477)">
      <path id="path138" d="M-15.715,0h-1.191a1.938,1.938,0,0,0-1.936,1.936V9.975" transform="translate(18.843)" fill="none" stroke="#ff0063" stroke-linecap="round" stroke-linejoin="round" stroke-miterlimit="10" stroke-width="0.75"/>
    </g>
    <g id="g140" transform="translate(7296.665 -676.564)">
      <path id="path142" d="M0-26.742v-1.3a4.028,4.028,0,0,1,4.023-4.023h9.1a1.043,1.043,0,0,1,1.043,1.043,1.043,1.043,0,0,1-1.043,1.044H8.125" transform="translate(0 32.064)" fill="none" stroke="#ff0063" stroke-linecap="round" stroke-linejoin="round" stroke-miterlimit="10" stroke-width="0.75"/>
    </g>
    <g id="g144" transform="translate(7298.751 -666.763)">
      <path id="path146" d="M-30.343,0h-6.038" transform="translate(36.381)" fill="none" stroke="#ff0063" stroke-linecap="round" stroke-linejoin="round" stroke-miterlimit="10" stroke-width="0.75"/>
    </g>
  </g>
</svg>
