<svg xmlns="http://www.w3.org/2000/svg" width="21.701" height="30.063" viewBox="0 0 21.701 30.063">
  <g id="_36x36_Light_Logo" data-name="36x36_Light_Logo" transform="translate(-7296.164 677.064)">
    <g id="g120" transform="translate(7304.286 -659.427)">
      <path id="path122" d="M-34.451,0A3.054,3.054,0,0,1-35.67.252h-7.372A2.444,2.444,0,0,0-45.485,2.7V3.11a2.444,2.444,0,0,0,2.443,2.443h10.437" transform="translate(45.485)" fill="none" stroke="#e7f6f2" stroke-linecap="round" stroke-linejoin="round" stroke-miterlimit="10" stroke-width="1"/>
    </g>
    <g id="g124" transform="translate(7304.286 -670.191)">
      <path id="path126" d="M-40.214,0H-50.651a2.444,2.444,0,0,0-2.443,2.443,2.444,2.444,0,0,0,2.443,2.444h7.372a3.065,3.065,0,0,1,3.065,3.065,3.065,3.065,0,0,1-1.846,2.813" transform="translate(53.095)" fill="none" stroke="#ff0063" stroke-linecap="round" stroke-linejoin="round" stroke-miterlimit="10" stroke-width="1"/>
    </g>
    <g id="g128" transform="translate(7296.665 -664.809)">
      <path id="path130" d="M-42.108-54.039h-7.607a5.887,5.887,0,0,1-5.88-5.88V-71.346" transform="translate(55.595 71.346)" fill="none" stroke="#e7f6f2" stroke-linecap="round" stroke-linejoin="round" stroke-miterlimit="10" stroke-width="1"/>
    </g>
    <g id="g132" transform="translate(7299.715 -655.396)">
      <path id="path134" d="M0,0V2.015a2.833,2.833,0,0,0,2.83,2.83h13.3a1.525,1.525,0,0,1,0,3.05H14.953" fill="none" stroke="#e7f6f2" stroke-linecap="round" stroke-linejoin="round" stroke-miterlimit="10" stroke-width="1"/>
    </g>
    <g id="g136" transform="translate(7299.715 -673.513)">
      <path id="path138" d="M-14.272,0h-1.741a2.833,2.833,0,0,0-2.83,2.83V14.579" transform="translate(18.843)" fill="none" stroke="#ff0063" stroke-linecap="round" stroke-linejoin="round" stroke-miterlimit="10" stroke-width="1"/>
    </g>
    <g id="g140" transform="translate(7296.665 -676.564)">
      <path id="path142" d="M0-24.286v-1.9a5.887,5.887,0,0,1,5.88-5.88h13.3A1.525,1.525,0,0,1,20.7-30.539a1.525,1.525,0,0,1-1.525,1.525h-7.3" transform="translate(0 32.064)" fill="none" stroke="#ff0063" stroke-linecap="round" stroke-linejoin="round" stroke-miterlimit="10" stroke-width="1"/>
    </g>
    <g id="g144" transform="translate(7299.715 -662.239)">
      <path id="path146" d="M-27.556,0h-8.826" transform="translate(36.381)" fill="none" stroke="#ff0063" stroke-linecap="round" stroke-linejoin="round" stroke-miterlimit="10" stroke-width="1"/>
    </g>
  </g>
</svg>
