<svg xmlns="http://www.w3.org/2000/svg" width="29.029" height="40.35" viewBox="0 0 29.029 40.35">
  <g id="_48x48_Light_Logo" data-name="48x48_Light_Logo" transform="translate(-7296.164 677.064)">
    <g id="g120" transform="translate(7306.983 -653.36)">
      <path id="path122" d="M-30.545,0A4.135,4.135,0,0,1-32.2.341h-9.982a3.308,3.308,0,0,0-3.308,3.308V4.21a3.308,3.308,0,0,0,3.308,3.308h14.131" transform="translate(45.485)" fill="none" stroke="#e7f6f2" stroke-linecap="round" stroke-linejoin="round" stroke-miterlimit="10" stroke-width="1"/>
    </g>
    <g id="g124" transform="translate(7306.983 -667.935)">
      <path id="path126" d="M-35.655,0H-49.786a3.308,3.308,0,0,0-3.308,3.308,3.309,3.309,0,0,0,3.308,3.309H-39.8a4.149,4.149,0,0,1,4.15,4.15,4.15,4.15,0,0,1-2.5,3.808" transform="translate(53.095)" fill="none" stroke="#ff0063" stroke-linecap="round" stroke-linejoin="round" stroke-miterlimit="10" stroke-width="1"/>
    </g>
    <g id="g128" transform="translate(7296.665 -660.648)">
      <path id="path130" d="M-37.334-47.912h-10.3a7.97,7.97,0,0,1-7.961-7.962V-71.346" transform="translate(55.595 71.346)" fill="none" stroke="#e7f6f2" stroke-linecap="round" stroke-linejoin="round" stroke-miterlimit="10" stroke-width="1"/>
    </g>
    <g id="g132" transform="translate(7300.794 -647.904)">
      <path id="path134" d="M0,0V2.728A3.836,3.836,0,0,0,3.832,6.56h18a2.065,2.065,0,0,1,0,4.13H20.246" fill="none" stroke="#e7f6f2" stroke-linecap="round" stroke-linejoin="round" stroke-miterlimit="10" stroke-width="1"/>
    </g>
    <g id="g136" transform="translate(7300.794 -672.433)">
      <path id="path138" d="M-12.654,0h-2.357a3.836,3.836,0,0,0-3.832,3.832V19.74" transform="translate(18.843)" fill="none" stroke="#ff0063" stroke-linecap="round" stroke-linejoin="round" stroke-miterlimit="10" stroke-width="1"/>
    </g>
    <g id="g140" transform="translate(7296.665 -676.564)">
      <path id="path142" d="M0-21.532V-24.1a7.971,7.971,0,0,1,7.962-7.962h18A2.065,2.065,0,0,1,28.029-30a2.065,2.065,0,0,1-2.065,2.065H16.08" transform="translate(0 32.064)" fill="none" stroke="#ff0063" stroke-linecap="round" stroke-linejoin="round" stroke-miterlimit="10" stroke-width="1"/>
    </g>
    <g id="g144" transform="translate(7300.794 -657.169)">
      <path id="path146" d="M-24.432,0h-11.95" transform="translate(36.381)" fill="none" stroke="#ff0063" stroke-linecap="round" stroke-linejoin="round" stroke-miterlimit="10" stroke-width="1"/>
    </g>
  </g>
</svg>
