<svg xmlns="http://www.w3.org/2000/svg" width="38.57" height="53.34" viewBox="0 0 38.57 53.34">
  <g id="_64x64_Light_Logo" data-name="64x64_Light_Logo" transform="translate(-7295.664 677.564)">
    <g id="g120" transform="translate(7310.128 -646.29)">
      <path id="path122" d="M-25.993,0a5.4,5.4,0,0,1-2.153.445H-41.169a4.317,4.317,0,0,0-4.316,4.316v.732A4.317,4.317,0,0,0-41.169,9.81h18.437" transform="translate(45.485)" fill="none" stroke="#e7f6f2" stroke-linecap="round" stroke-linejoin="round" stroke-miterlimit="10" stroke-width="2"/>
    </g>
    <g id="g124" transform="translate(7310.128 -665.306)">
      <path id="path126" d="M-30.341,0H-48.778a4.317,4.317,0,0,0-4.316,4.316,4.317,4.317,0,0,0,4.316,4.317h13.023a5.414,5.414,0,0,1,5.414,5.414A5.415,5.415,0,0,1-33.6,19.016" transform="translate(53.095)" fill="none" stroke="#ff0063" stroke-linecap="round" stroke-linejoin="round" stroke-miterlimit="10" stroke-width="2"/>
    </g>
    <g id="g128" transform="translate(7296.665 -655.798)">
      <path id="path130" d="M-31.77-40.772H-45.207A10.4,10.4,0,0,1-55.595-51.159V-71.346" transform="translate(55.595 71.346)" fill="none" stroke="#e7f6f2" stroke-linecap="round" stroke-linejoin="round" stroke-miterlimit="10" stroke-width="2"/>
    </g>
    <g id="g132" transform="translate(7302.053 -639.171)">
      <path id="path134" d="M0,0V3.56a5,5,0,0,0,5,5H28.487a2.694,2.694,0,0,1,0,5.389H26.415" fill="none" stroke="#e7f6f2" stroke-linecap="round" stroke-linejoin="round" stroke-miterlimit="10" stroke-width="2"/>
    </g>
    <g id="g136" transform="translate(7302.053 -671.175)">
      <path id="path138" d="M-10.768,0h-3.076a5,5,0,0,0-5,5V25.755" transform="translate(18.843)" fill="none" stroke="#ff0063" stroke-linecap="round" stroke-linejoin="round" stroke-miterlimit="10" stroke-width="2"/>
    </g>
    <g id="g140" transform="translate(7296.665 -676.564)">
      <path id="path142" d="M0-18.323v-3.353A10.4,10.4,0,0,1,10.388-32.064H33.876A2.694,2.694,0,0,1,36.57-29.37a2.694,2.694,0,0,1-2.694,2.695H20.98" transform="translate(0 32.064)" fill="none" stroke="#ff0063" stroke-linecap="round" stroke-linejoin="round" stroke-miterlimit="10" stroke-width="2"/>
    </g>
    <g id="g144" transform="translate(7302.053 -651.259)">
      <path id="path146" d="M-20.79,0H-36.381" transform="translate(36.381)" fill="none" stroke="#ff0063" stroke-linecap="round" stroke-linejoin="round" stroke-miterlimit="10" stroke-width="2"/>
    </g>
  </g>
</svg>
